<svg version="1.1" id="headerImage" xmlns="http://www.w3.org/2000/svg" xmlns:xlink="http://www.w3.org/1999/xlink" x="0px" y="0px" viewBox="0 0 1021.5 309" style="enable-background:new 0 0 1021.5 309;" xml:space="preserve">
              <g>
                <path d="M502.1,84.9c0.3,3,4,5.1,7.7,4.3c5-1.1,6.3-8.8,1.7-10.6C506.4,76.5,501.6,80.3,502.1,84.9z M505.5,87.5   c-3.4-1.9-1.7-7.8,1.9-8.1C515.9,78.6,513.6,90.1,505.5,87.5z" fill="#e06ce6"></path>
                <path d="M482.9,80.3c2.2,0.8,4.5,1.4,6.7,1.9c1.9,0.4,4.3,1,6.6,1.5c-7.8,0.3-17.4-0.5-22.2,2.5c-1.3,0.8-3,2.8-3.1,4.8   c-0.1,4,4.8,7.2,8.2,7.9c4.1,0.8,6.8-0.5,9.4-1.3c1.3-0.4,2.9-0.9,3.9-1.4c1.7-0.8,3.5-3,5.9-4c-2.8,4.1-5.2,9.2-6.8,13   c-0.3,0.7-0.7,2-0.8,2.6c-0.7,5.6,6.8,11,12.7,8.3c1-0.5,2.2-2,3.1-3.1c3.1-3.8,2.7-12.7,3-18.2c2.8,10.8,5.1,18,12.3,19.8   c5.7,1.4,11.1-2.3,10.9-8.3c-0.2-4.7-3.5-7.5-6.4-10.6c-1.2-1.3-2.7-2.6-3.8-3.7c-1.2-1.2-3.6-2.9-4.5-4.7   c5.8,2.3,12.4,4.4,18.4,4.8c4.4,0.3,10-2.8,10.9-5.8c0.8-2.7-0.6-5.5-2-7c-3.1-3.1-10-4.5-15.9-3.9c-2.8,0.3-7.6,1.3-11.2,2.6   c4.9-3.6,11.2-9.5,13.6-14.4c1.7-3.7,1.8-9.8-1.3-11.2c-3.6-1.7-9.2,1-11.2,3c-0.8,0.8-1.4,2.3-2.2,3.6c-0.7,1.2-1.7,2.3-2.4,3.4   c-1.1,1.9-3.1,7.1-4.1,9.3c0.7-6.2,1-13.6-1.9-19.3c-2.8-5.6-12-3.6-13,2.3c-1.1,6,1.6,14.3,3.4,20.2c-5.3-4.1-12.5-12.7-22.1-12.1   c-2.1,0.1-4.7,1.3-5.4,3.4c-0.8,2.1,0.1,5.5,1.1,7.4C474.8,77,479.3,79,482.9,80.3z M526.3,85.9c1.8,0.4,3.7,0.5,5.6,0.5   c1.9,0,3.8-0.4,5.3-1.7c-1.7-1.8-4.2-2.8-6.6-3c-1.4-0.1-2.7,0.1-4.1-0.1c-2.6-0.3-5.1-0.6-7.7-0.5c0.4-2.3,1.9-3.2,4.3-3.7   c3.4-0.7,7.1-1.1,10.6-1c5.6,0.1,12,3.1,12.4,7.3c0.4,4.6-5.7,7.4-10.1,7.2c-3.5-0.1-7-1-10.3-2.2c-1.9-0.7-3.5-0.8-5.1-2.3   c-0.9-0.8-2.2-2.5-1.7-2.5C520.8,84.3,524.4,85.4,526.3,85.9z M519.9,82.7c2.3,0,5.3,0.1,8.1,0c1.5,0,2.9,0,4.3,0.5   c0.4,0.1,1.8,0.7,2.8,1.3C529.8,87.3,523.7,84.2,519.9,82.7z M496,92.1c-1.5,1-3.1,2.6-4.6,3.4c-1.4,0.7-3.3,1-5.1,1.6   c-4.6,1.6-9.5,1.1-12.8-2.4c-1.5-1.7-2.3-4.8-0.3-6.8c2.2-2.3,9.4-3.1,14.1-3.1c3.6,0,8.2-0.3,10.8,0.8c-1,1-3.4,1.1-4.8,1.5   c-4.1,1.1-9.3,0.6-11.7,4.6c1.2,2.1,4.9,1.3,6.7,0.8c3.6-1,7.2-3.5,10.4-4.5C499.4,89.6,497.6,91,496,92.1z M495.9,87.5   c-1.3,1.6-4.5,2.3-6,2.9c-1.8,0.7-4.2,1.5-6.7,0.8C485.3,88.5,493,87.7,495.9,87.5z M508.1,101.1c0,2.7-0.1,5.5-0.9,8   c-0.7,2.1-2.8,4.9-4.3,5.7c-4.7,2.5-11.5-2.1-11.2-6.1c0.1-1.5,0.9-2.8,1.7-4.7c1.5-3.5,2.4-6.7,4.4-9.4c1.2-1.6,3.1-2.9,4.1-3   c0.7,0.9-0.6,2.4-1.1,3.6c-1.3,2.8-3.7,5.9-2.4,10.2c3.8-0.6,5.8-5.6,6.4-12.4c0.1-0.6,1.9,1,1.9,1.2c0.6,0.6,0.9,1.4,1.1,2.2   C508.3,97.8,508.1,99.5,508.1,101.1z M503.1,94.2c-0.4,3.5-0.4,8.7-4,9.7C498.2,100.5,501.5,96.8,503.1,94.2z M520.2,91.5   c2.5,2.2,4.5,4.2,6.6,6.7c1.6,1.8,3.2,2.8,3.9,5.1c0.5,1.5,0.9,4.3,0.4,5.9c-0.5,1.8-2.8,3.1-3.7,3.6c-1.3,0.7-3.4,1.1-5.7,0.6   c-8.1-1.8-9.3-12.6-11-18.9c-0.4-1.5,0.5-1.6,1.5-2.3c1.5,2.4,2.8,5,4.6,7.2c0.9,1.1,1.9,2,3.1,2.7c2.6,1.7,4.6,2.5,4.6,2.3   c-1-7.8-7.5-9.2-10.4-13.4C515.4,89.4,518.8,90.4,520.2,91.5z M514.5,93.5c3,2.7,7.8,4.2,8.5,9.4C518.8,102.2,515.9,96,514.5,93.5z    M512.1,71c0.2-1.5,1-3.3,1.7-4.7c1.5-3.3,3.5-6.5,5.8-9.3c1.3-1.6,7.8-5.7,10.8-3c1.6,1.5,1.5,5.6,0.6,8.4c-1,2.8-4.2,6.7-6.3,8.9   c-2.2,2.4-6.2,6.7-9.9,5.1c1.1-1.3,3.1-2.7,4.4-3.8c1.6-1.3,3.1-2.8,4.2-4.6c0.8-1.2,2.2-4,1.1-5.3c-2.3,0.3-3.7,2.1-5,3.3   c-1.4,1.4-2.2,3.1-3.1,4.9c-0.6,1.2-2.1,3.2-3.2,4.3C512.9,75.4,511.7,73.5,512.1,71z M515.1,74.5c2.4-3.3,4.4-9.4,8.7-10.3   C523.5,69.3,518.4,72.6,515.1,74.5z M511.1,75.7c3.4,0.7,6.5,5,6.3,7.7c-0.5,6.1-8.2,10.4-13.5,7.7c-0.7-0.4-1.4-0.8-1.9-1.5   c-1.2-1.2-2.6-3.7-2.8-5.4C498.7,78.7,505.1,74.4,511.1,75.7z M504.6,73.9c-1.1-3.7-4-10.5-1.8-14.2   C505.7,62.3,504.7,69.5,504.6,73.9z M498,65.9c-0.4-1.5-1-3.1-1.1-4.4c-0.2-3-0.3-6.8,1.6-8.9c2.5-2.8,7.3-2.6,9.4,0.5   c2.3,3.4,2.4,7.7,2.3,11.6c-0.1,3,0.5,10.2-4.3,10c-0.6-6,0.5-13.5-3.4-16.7c-1.4,1.5-1.6,4.6-1.2,7.4c0.2,1.6,0.8,3.9,1.2,5.4   c0.4,1.4,0.7,2.7,0.9,4.3c0,0.4-1.2,0.5-2.2-0.3C498.9,73,498.9,69.1,498,65.9z M479.6,64.1c7,0.6,12.7,5.9,16.9,9.6   c1.5,1.4,3.5,2.5,3.6,4.5c-0.7,1.4-3.1-0.1-4.3-0.9c-3.8-2.8-8.6-8.2-13.9-7.5c-0.6,1.6,0.5,3.3,1.5,4.3c2.3,2.5,5,4.1,8.9,5.5   c1.9,0.7,4.2,1,5.6,2.4c-0.7,0.9-1.9,0.3-2.8,0.1c-9.9-1.4-21.6-4.2-22.8-13.7C472.1,65,476.7,63.8,479.6,64.1z M496.8,79.5   c-3.9-0.3-13-5.4-12.9-8C487.7,69.5,495.6,78.1,496.8,79.5z" fill="#e06ce6"></path>
                <path class="matchHeadingColourSVG" d="M424.4,75.1c5.8,3.5,11.1,11.6,17.5,13.6c2.5,0.8,4.4,0.9,7.1,0.9c2.3,0,4.4,0.5,6.8,0c3-0.7,5.8-2,8.5-3.5   c1.4-0.7,2.7-1.5,4.1-2.2c0.9-0.5,2.9-0.9,3.4-1.9c-0.6-2.4-3-3.6-4.6-5.1c-1.7-1.6-3.3-3.4-5.1-4.8c-2.5-1.9-5.9-3.2-9.2-4.3   c-5.2-1.7-10.1-2.3-16.7-0.5c-3.9,1.1-6.2,3.2-10.1,4.6c-1.4,0.5-3.5,0.2-3.9,1.6C422.2,74.7,423.7,74.6,424.4,75.1z M434.9,81.4   c0.3-1.7,4-2.5,6.4-3.4c1.4-0.5,3-1.6,3.8-0.1c-1.8,0.8-4.6,1.9-6.6,3C437.2,81.7,435.8,83.2,434.9,81.4z M437.6,83.3   c1.1-1.6,4-3.3,6.6-4.2c3.2-1.1,6.5-1.1,9-0.3c-0.4,1.1-1.9,1.1-2.9,1.6c-0.9,0.5-1.9,1.1-2.9,1.6   C443.5,84.3,440.4,87.7,437.6,83.3z M443.1,86.1c1.8-1.7,5.8-4,8.5-5.2c1.1-0.5,2.8-1.3,3.9-0.7c-1.5,0.8-3,1.4-4.8,2.4   C447.7,84.4,445.2,88.2,443.1,86.1z M446.2,87.4c1.3-1.6,3.8-2.9,6.4-4.3c1.9-1,3.2-2.1,5.4-2.4c1.8-0.2,4.4-0.3,5.6,1   C458.1,83.9,452.1,91.5,446.2,87.4z M455.1,88.3c2.7-2.4,7.3-5.8,11.6-5.7C464.8,85.5,459.7,88,455.1,88.3z M450.4,68.1   c7.6,1.9,14.4,7,18.8,12.4c-4.5,0.5-7.7-1.2-11.8-2c-2.8-0.6-5.9-0.9-8.6-1.5c-0.6-0.1-1.1-0.6-1.7-0.8c-1.4-0.3-2.9,0-4.3-0.2   c-2.5-0.3-5.1-1-7.7-1.6c-2.5-0.5-5.2-0.5-7.5-1.6C433.6,68.8,443.2,66.3,450.4,68.1z M426.8,74.6c2,0,4.1,0.1,6.1,0.5   c1.4,0.2,2.6,1,4,1.2c0.2,0,3.7,0.5,3.3,0.7c-2,1.1-4.9,2.4-6.8,3.1c-2.5-1.6-4.9-3.2-7-5.4C426.6,74.6,426.7,74.6,426.8,74.6z" fill="#9a7594"></path>
                <path class="matchHeadingColourSVG" d="M560.3,65.7c1.9-2.2,3.6-4.8,4.8-8.2c1.2-3.3,1.9-6.9,3.6-9.9c0.8-1.5,2.1-2.5,2.7-4.1c0-0.3-0.2-0.5-0.4-0.6   c-16.7,1-33.5,6.9-35.9,29.3C546.3,74.7,554.8,72.3,560.3,65.7z M568.6,44.4c-1.2,3.5-3.5,5.2-6,6.6c0.8-2.6,2.3-3.8,3.2-6.2   C566.6,44.3,567.4,44.3,568.6,44.4z M563.4,45.3c0.1,0,0.2,0.1,0.3,0.1c-1.6,4.5-4,7.7-7.3,9.4c1.3-2.1,2.7-4.3,4-6.5   C561.1,47.1,561.7,45.1,563.4,45.3z M559.9,46.1c-1.8,5.9-5.8,10.3-9.9,13.2c2-3.6,3.5-8,5.2-12.1   C556.5,46.4,557.9,45.8,559.9,46.1z M552.9,48.4C552.9,48.3,552.9,48.3,552.9,48.4c0.3,3.4-2.8,9-5,12c-0.9,1.3-1.9,2.9-3.2,3.1   c1.1-2.4,3-5.3,4.2-8.1C549.8,53.3,550.2,48.9,552.9,48.4z M536.7,69.9c0.7-3.6,1.3-7,2.7-10.2c1.5-3.2,5.9-8.5,9.6-9.2   c-0.9,6.5-5.1,12.7-9.6,17.3C538.6,68.7,538.1,69.9,536.7,69.9z M541.8,68.6c7.7-6.9,16.1-13.1,24.7-18.8c-0.2,0.4-0.3,0.9-0.5,1.3   c-1.2,3.3-1.8,6.8-3.4,9.8c-4.3,8.4-14.1,13.1-23.7,10.5C539.2,69.9,540.9,69.4,541.8,68.6z" fill="#9a7594"></path>
                <path class="matchHeadingColourSVG" d="M560.7,74.4c-2.5,1.7-5.1,3.1-6.6,6.2c-0.7,1.5-1.6,4.5-1.1,5.7c1,2.4,8.9,6,12.3,6.6c4.2,0.7,8.8-0.5,12.6-2.5   c4.3-2.2,7.8-6.5,11.6-9.4c1.8-1.4,3.7-2.7,5.6-3.8c1-0.6,2.8-1.1,3.7-2.1c0.2-0.2,0.4-0.4,0.5-0.7c-2.3-1.2-5.3-1.7-7.8-2.5   c-2.7-0.9-5.4-1.7-8.1-2.3c-6.6-1.5-12.7-1.3-17.7,1.2C564.1,71.6,562.4,73.2,560.7,74.4z M554.6,85c0-1.7,0.8-4,1.7-5.1   c1.4-1.8,4-3.7,5.6-4.1c-1.1,1.7-2.2,3.7-3.3,5.6C557.6,82.7,556.3,85.2,554.6,85z M559.6,89.4c1.2-0.8,3.7,1.1,4.7,1.9   C562.8,91.3,561,90.1,559.6,89.4z M557.5,86.3c2.1-2,4.8,0.5,7.8,2c2.1,1.1,4.4,1.7,6.7,2.5C567.7,92.9,561,88.3,557.5,86.3z    M573.5,90.2c-3.6-0.9-8.6-3.2-11.8-5.1c0,0,3.2-1.2,4-1c1.6,0.3,3.2,1.2,4.7,1.9c1.9,0.9,3.8,2,5.8,2.8   C576,89.8,574.5,90.3,573.5,90.2z M566.9,83.6c2.6-3.8,9.9,1.2,13.3,2.8C578.2,90.3,570.5,84.7,566.9,83.6z M581.3,85   c-1,0.1-2-0.1-2.9-0.4c-1.9-0.6-3.9-1.7-5.3-3.2c-0.2-0.2,2.9-1.2,3.2-1.3c0.3,0,0.6,0,0.9,0c1.2,0.2,2.2,0.9,3.2,1.4   c1.2,0.6,2.5,1.1,3.3,2.2C584,84.2,581.5,85,581.3,85z M585.2,81.5c-1,0.2-2.1,0.2-3.1-0.1c-0.4-0.1-3.2-1.3-2.8-1.8   c0.9-1.2,2.6-1.3,3.9-1c0.6,0.1,2.7,1.2,4.1,1.9C586.7,81,586,81.3,585.2,81.5z M584.7,78c1.5-1.5,3.7-1.6,5.6,0.1   C589.5,80.4,586.4,78.9,584.7,78z M590.5,76.5c0.8-0.8,1.9-0.7,3.1-0.7C593.4,77.1,591.9,77.5,590.5,76.5z M590.8,73.9   c0.5-0.2,3-0.1,3.7,0.7c-0.7,0.2-3.6,1-4.5,0.7C590,74.7,590.4,74.1,590.8,73.9z M588.3,72.8c0.2,0,1.6,0.1,1.5,0.3   c-0.5,1.8-2.2,3.6-4.3,2.8c-0.2-0.1,1.4-1.9,1.5-2C587.3,73.5,587.9,72.9,588.3,72.8z M586.6,72.2c-2,2.9-3.9,5.7-7.1,5.8   C581.4,75,582.7,70.8,586.6,72.2z M578.3,71.1c0.6-0.2,3.1,0,4.1,0.2c-2.7,4.1-5,9-9.7,8.5c0.7-1.9,1.5-3.7,2.5-5.3   C576,73.2,576.9,71.7,578.3,71.1z M576.4,71c0.1,0-3.7,6.3-4.1,6.9c-0.5,0.9-1,1.8-1.6,2.5c-0.7,0.8-1.7,1.4-3.2,1.1   c0.8-2.1,2-4,3.2-5.9C572,73.8,573.4,69.5,576.4,71z M572.4,71.2c-1.4,2.2-2.5,4.4-4,6.8c-1.6,2.7-3.7,6.1-6.5,5.5   C564.8,78,567,70.9,572.4,71.2z M562.3,80.4c-0.9,1.5-1.3,2.9-2.5,3.7c-0.5,0.3-1.2,0.6-2.1,0.6c1.3-2.4,2.6-4.9,4.1-7.2   c0.7-1.1,1.4-2.2,2.4-3.1c0.6-0.5,1.7-1.2,2.7-1.5C565.3,75.3,563.8,77.8,562.3,80.4z" fill="#9a7594"></path>
                <path class="matchHeadingColourSVG" d="M576.4,125.1c-0.2-1.5-0.7-3.2-1-5c-0.6-3.4-1.6-6.4-4.2-10.1c-2.7-3.8-6.3-8.3-9.6-10.1c-1.2-0.6-2.7-0.8-4.2-1.3   c-5-1.6-11.6-4-16.7-0.5c-0.7,1.8-0.2,4.7,0.4,7.4c0.2,1,0.6,2.3,1,3.2c3.8,9.6,12.4,13.4,20.2,17.3c1,0.5,1.9,1.5,3,2.1   c2.9,1.7,6.1,4.1,8.8,6.6c1,0.9,1.6,2.6,3.3,2.3c0.6-1.9-0.5-3.5-0.8-5.3C576.1,129.6,576.6,127.3,576.4,125.1z M574,120.4   c0,0.1-3.5-1.5-3.8-1.6c-1.2-0.5-2.5-0.6-3.6-1.1c-1.5-0.7-3.6-3-3.8-4.7c1.9,0.2,5.2,1,7.3,1.9C572.5,115.9,574.2,117.9,574,120.4   z M572,114.3c-1.9,0-3.6-1.2-5.9-1.8c-1.5-0.4-3.6,0.1-4.9-0.6c-1-0.6-1.6-1.9-2.4-2.7c-1.2-1.1-2.9-1.5-3.4-3.1   c3.8-0.1,6.7,1.1,10.6,2.7C568.4,109.9,570.9,111,572,114.3z M561.8,102.1c0.6,0.2,1.1,0.5,1.6,0.8c1,0.6,1.8,1.4,2.5,2.4   c0.3,0.4,1.5,2.2,2,2.9c-1.9-0.2-3.7-1-5.5-1.7s-3.2-1-5-1.2c-1.7-0.2-3.5-0.6-5-1.3c-0.8-0.4-1.5-0.8-2.2-1.3   c-0.2-0.2-1.5-1.7-1.7-1.7c2.4-0.3,4.8-0.5,7.1-0.3C557.6,100.8,559.8,101.3,561.8,102.1z M554.4,98.9c-3.2,0.4-8.2,2.4-11.2-0.6   C546.6,96.8,551,97.6,554.4,98.9z M552.2,119.2c-1.1-0.8-2.6-1.4-3.6-2.4c-5-4.7-8.1-12.9-6.4-17.2c6.8,1,12.3,15,13.7,21.4   C554.6,121.7,553.5,120.1,552.2,119.2z M561.6,124.5c-2-0.8-3.5-0.8-4.7-4.1c-0.6-1.5-0.7-3.4-1.4-5.2c-1.4-3.5-3.8-7.3-5.1-10.8   c7.1,3,14.1,13.8,14.4,21.6C563.5,125.9,562.8,125,561.6,124.5z M570.6,130.3c-1.2-1-3.2-1.7-4-3c-0.5-0.8-0.3-1.7-0.6-2.6   c-0.8-2.8-2.6-5.8-2.5-8.5c4.2,5.2,9.6,11.6,11.3,17.5C573.1,133.7,572,131.5,570.6,130.3z M574.8,129.9c-2.2-2.8-5-6.9-6.8-10.4   C573.3,119.6,576.4,124.3,574.8,129.9z" fill="#9a7594"></path>
                <path class="matchHeadingColourSVG" d="M448.5,132.4c0.3,1.5,0.5,3.5,1.7,4.2c2.2-2,3.7-4.4,5.9-6.5c1-1,2.3-1.5,3.3-2.4c1.1-1.1,2.1-2.5,3.3-3.6   c2.6-2.7,5.5-5.6,6.9-10.5c1.3-4.5,1.7-10.4,0.9-14.4c-0.2-1.1-0.9-2.3-1.4-3.9c-0.5-1.3-1-3.5-2.1-3.7c-0.9-0.2-3.1,1.8-4.4,2.8   c-1.6,1.3-2.9,2.6-4,3.6c-0.7,0.6-3,2-3.5,2.5c-3,3-5.4,7.6-6.8,12.6c-1.1,3.9-0.7,7.6-0.4,10.6c0.2,1.3-0.1,2.9-0.1,4.2   C447.8,129.2,448.2,130.9,448.5,132.4z M450.2,133.5c-1.1-2.2-0.3-5.4,0.9-7.1c0.6-0.8,1.3-1.6,1.8-2.5c0.6-0.9,1.1-1.6,1.8-2.4   c-0.6,1.8-1.2,3.7-1.8,5.5C452.7,127.5,450.3,133.6,450.2,133.5z M453.6,129.8c-0.4-1.8,0.8-4.6,2-6.3   C455.8,125.2,455,128.6,453.6,129.8z M449.6,126.4c-1.5-3.3,0.2-6.9,2.1-9.6c1-1.4,2.2-2.7,3.4-4c0.3-0.3,0.6-0.7,0.9-1   c0.4-0.5,1.7-1.6,2.5-2.4C457.5,116.5,453.4,121.7,449.6,126.4z M461.4,120.4c-0.8,2.4-2.5,5.3-4.9,5.9c0.2-5.5,1.6-13,4.7-18.9   c0.7,2,0,4.8,0.1,7.6C461.4,116.9,462,118.7,461.4,120.4z M466.6,94.2c2.4,5,4.1,10.9,1.2,17.9c-0.9-1.4-0.5-3.1-0.8-4.6   C466.3,103.6,464.7,99.1,466.6,94.2z M466,106.9c0.7,4.1,0.9,9.5-3.1,12.8c-0.7-2-0.5-4.1-0.6-6.2c-0.3-4,0-8.4,2.1-13.8   C465.5,101.4,465.6,104.3,466,106.9z M457.2,99.8c1.5-1.4,4.1-2.4,5.9-2.9c-2.6,3.9-6.3,6.6-9.6,9   C454.1,103.4,455.5,101.3,457.2,99.8z M449.4,113.6c2.8-6.6,8.1-9.6,13.5-14.5c-0.5,2.6-2.1,4.7-3.1,6.4c-3.1,5.1-7.8,8.6-10.7,14   C448.3,117.8,448.8,115.2,449.4,113.6z" fill="#9a7594"></path>
             </g>
             <!-- <g>
                <path class="matchHeadingColourSVG" d="M74.4,203.4c-5-1.7-8.6-0.3-12.1,0.8c-3.6,1.2-7.9,3.4-10.8,3.4c0.6,1.7,2.1,2.9,3.2,4.3c1.2,1.5,2.6,2.8,4.3,3.9   c3.9,2.3,9.2,2.7,12.6,2.5c3.3-0.2,6.9-0.6,10-0.3c2.1,0.2,3.5,0.5,5.3-0.4c0-1.4-1.6-4.6-2.8-6.6   C82.6,208.5,77.9,204.6,74.4,203.4z M83.2,211.6c-0.9-0.4-2.4-2.3-3-3.1C81.6,208.5,82.8,210.4,83.2,211.6z M66.6,203.6   c3.9-1,9.3-0.1,12.9,4c-6.4-4.1-14.9-3.1-20.1-0.7C60.8,205.6,63.8,204.3,66.6,203.6z M76.1,217c-4.4,0.2-10.7,1.5-16.5-1.8   c-0.5-0.3-2-1.5-2.8-2.1c-0.6-0.5-1.1-1.3-1.3-2c3.7,1.1,7,3.2,11.1,3.9c1.7,0.3,3.8,0,5.7,0s4,0.1,5.9,0.4   c1.8,0.3,3.9,0.9,5.6,1.4C81.8,216.8,78.7,216.9,76.1,217z M57.8,210.7c2.4-0.4,5,0.3,7.6,0.3c4.7,0,11.1,0,15,3.5   C73.2,214,65,215.4,57.8,210.7z M69.8,210.5c-4.2-0.3-8.7,0.2-13-1.3c1.4-0.9,3-1.2,4.5-1.9c5.2-2.3,12.6-2.4,17.3,0.8   c2.1,1.5,5,4.8,5.8,7.6C79.9,212.5,75,210.8,69.8,210.5z" fill="#9a7594"></path>
                <path class="matchHeadingColourSVG" d="M82,222.1c-8.5-1.1-14.8,7.8-15.9,17.4c-0.3,2.4,0,5-0.7,7.1c-0.3,0.8-0.8,1.6-0.6,2.1c0.9,0.2,2-0.3,3.2-1.3   c1.8-1.4,4.5-2.9,6.9-4.3c3-1.7,6-2.9,7.8-7.3c1.8-4.3,1-8.5,1.3-12.7C84.1,222.6,82.3,222.2,82,222.1z M67,243.7   c-0.3-3.6,0.4-8.7,2.5-13.1c0.3-0.5,0.6-1.2,1-1.7c2.8-3.9,6.5-6.3,10.6-5.8c-1.7,1.5-4.3,2.7-6.1,4.8c-0.9,1.1-1.5,2.3-2.3,3.3   c-1.6,2.1-2.8,3.9-3.5,6.1C68.4,239.5,68.3,241.7,67,243.7z M79,226.5c-2.3,3.4-5.3,7.2-8.2,9.4C72.8,232.5,75.9,227.4,79,226.5z    M70.4,239.9c2.9-5.2,7.3-11,10.6-13.6c-2.5,5.7-7.4,11.6-11.5,16.5C69.4,241.9,69.9,240.8,70.4,239.9z M73,242.9   c-0.8,0.5-1.8,1.3-3.2,1.2c4.9-5.7,9.1-11.7,11.3-16.3c-0.8,3.3-2.9,10.4-6,13.6C74.5,242,73.8,242.4,73,242.9z M81.4,236.6   c-1,1.9-2.7,3.6-4.5,4c3.6-6,4.3-9.7,5.8-14.4C83.1,228.9,83.2,233.3,81.4,236.6z" fill="#9a7594"></path>
                <path d="M47.8,142.3c3,0,8.3-2,12.9-4.7c-3.6,2.8-6.5,9.4-5.9,12.6c0.3,1.7,1.9,5,3.6,6.4c3.4,2.9,9.5,0.9,12.3-2.2   c2.3-2.6,2.7-6.4,2.6-9.1c-0.2-3.2-1.2-6.1-1.7-8.5c3.3,5.2,8.7,11.3,13.5,12.2c2.4,0.4,6.8-0.4,8.7-2.6c1.4-1.7,1.8-4.6,1.6-6.2   c-0.5-4.8-6.1-8.5-11.1-9.7c-1.5-0.4-3.8-0.6-6.6-0.3c7.3-2.2,14.3-7.6,16.5-13.6c1-2.8,0.1-7.9-3.1-9.9   c-5.2-3.3-12.4-0.4-16.6,4.7c-2.2,2.7-3.7,5.9-5.3,11.3c-1.1-5.3-2.2-12.2-5.9-16c-5.2-5.5-13.2-1.6-13.8,5.1   c-0.4,4.7,4.9,11.7,11.4,16.2c-6-2.4-15.2-1.9-19.1,2.6c-2.1,2.4-2.5,6-0.5,8.6C42.8,141.1,45.2,142.3,47.8,142.3z M92.1,137   c1.9,2.1,1.8,5.5,0.7,7.2c-1.7,2.5-4.9,3.4-7.9,3c-6-0.8-11-8-13.2-13.2c4.1,1.3,9.3,5.8,13.3,5.6c0.7-2-1.6-1.9-2.8-2.2   c-2.8-0.7-7.6-2.6-10.7-5.2C79.6,130.2,87,131.4,92.1,137z M88.4,107.7c6.2,2.2,4.5,9.6,0.6,13.8c-5,5.3-11.9,8.9-18.6,8.8   c2.7-5.7,8.9-8,12.4-12.5c-1-1.4-2-0.3-2.9,0.3c-2.8,1.8-6.9,7.5-9.8,9.5C69.1,117.3,80.3,104.8,88.4,107.7z M62.6,147.4   c0.5,0.7,1,0.5,1.6,0.3c2.3-3.6,3.5-9.4,5.6-12.5c1,2.3,1.5,4.6,1.8,7.1c0.5,4.5,0.8,8.5-2.9,11.7c-2.5,2.2-6.7,3.6-9.4,0.7   c-2.8-3.1-3.2-6.6-2.5-9.4c0.7-2.7,2.7-4.9,4.8-6.8c1.8-1.5,4.5-4.5,6.7-5.2c-0.5,4-2.1,7.9-4.2,11.2   C63.5,145.4,62.1,146.1,62.6,147.4z M53.1,108.1c2.3-2.7,6.2-2.9,8.9-0.5c2.1,1.9,2.7,5.2,3.6,7.8c1.2,3.6,3.3,6.8,2.2,12.1   c-1.6-2.6-2.1-6.7-4.1-9.7c-0.6-0.9-1.4-2.6-2.9-2.3c-1.6,1.6,0.7,2.5,1.4,3.4c2.2,2.7,3.7,7.8,5,10.6   C58.7,128.4,47.5,114.6,53.1,108.1z M43.6,131.4c4.7-4.6,15.7-4.8,23.7-0.1c-2.8,1.4-9.3,1.6-12.9,1c-1.4-0.2-3.9-0.5-3.4,1.3   c1.2,0.4,4.1,0.5,6,0.5c3.1,0,5.3-1,7.9-0.8c-2.2,3-9.7,6.2-13,6.9c-3,0.6-6.3,0.7-8.7-1.8C41.1,136.1,41.5,133.4,43.6,131.4z" fill="#e06ce6"></path>
                <path class="matchHeadingColourSVG" d="M68.2,186.2c0.3-1.5-0.8-4.4-1.4-6c-0.1-0.2-0.2-0.4-0.2-0.6c-1-2.2-3.2-4.8-4.6-6.1c-1.2-1-3.4-2.6-5-3.2   c-2.6-0.9-5.2-1-7.9-0.6c-2.4,0.4-4.9,1.1-7.4,1.1c-0.2,0.8,0.5,1.6,0.9,2.3c0.5,0.9,1,1.9,1.5,2.8c3.7,7.6,8.1,11.9,15.6,12.1   C61.2,188.1,67.1,187.1,68.2,186.2z M66.4,184.4c-5.9-4.1-10.6-9.6-20.8-12.5C55.6,169.4,65.6,173.6,66.4,184.4z M53.5,176.6   c4.2,2.3,8.3,4.5,10.7,7.9c-9.3-1.4-15.7-8.5-19.6-11.6C48,173.9,51.3,175.5,53.5,176.6z M45.2,175.4c5,3.8,9.4,8.4,19.4,10.6   c-1,0.8-3.9,1.5-5.3,1.4C51.3,187,47.6,180.3,45.2,175.4z" fill="#9a7594"></path>
                <path d="M88.7,154c-1.7-0.2-2.3,1.8-1.7,2.9c1.1,2,3.9,1.9,5.1,0.5c1.6-1.9,0.9-5.3-1.4-6.8c-2.5-1.6-5.8,0-7.4,2.1   c-1,1.3-1.9,3.6-1.9,5.3c-1.5-2.1-2.9-4.2-4-6.5c-0.1-0.3-2.6-5.1-2.9-3.7c-0.5,2.9,3.3,7.8,4.8,10.1c-2.5-1.7-7.2-3.7-9.6-1.2   c-1.7,1.7-1.1,5.1,1.5,6.4c2.7,1.3,6.1-0.8,8.9-0.7c2.1,0.2,3,2.2,3.9,3.7c0.1,0.1,0.2,0.1,0.3,0.1c0.3-0.3,0.7-1.9,0.7-1.9   c0.1-1-1.1-3-1.4-3.8c-0.6-1.8-1-3.7,0-5.4c1.2-2.1,3.4-4.4,6.3-2.5c1.9,1.2,1.9,4.6-0.5,4.2C90.5,155.9,90,154.2,88.7,154z    M72.7,161.9c-3.1-1.3-2.3-3.9-0.7-4.6c2.6-1,7,1.4,8.8,3.2C78.5,160.3,74.9,162.8,72.7,161.9z" fill="#e06ce6"></path>
                <path d="M96.3,41.4c-0.4-2-3.1-1.5-4.1-0.3c-2,2.6,0.8,5.8,3.7,5.4c4.3-0.6,6.1-6.1,5.1-8.8c-1.5-4.1-6.5-4.4-9.9-3.3   c-2.3,0.8-5.5,3.1-7.5,5.3c-4.1,4.4-6.2,10.1-8.2,14.8c-0.1-1.3-0.5-3.9-0.9-4.9c-1-2.2-3.6-3.8-5.6-1.8c-1.5,1.5-1.4,4.3-0.5,6.1   c1.2,2.3,3.1,3.5,3.7,5.6c1.3,4.3-2.4,9.6-3.1,15.2c-0.3-2.4-0.9-4.7-1.8-6.3c-1.1-1.8-3.3-4.1-5.4-2.6c-1.4,1-2.6,3.1-1.6,5.1   c1.4,2.8,5.7,4.3,6.9,6.9c0.9,1.9-0.5,6.5-0.9,8.8c-0.6,3.3-0.5,8.1-0.1,11.7c-1-2-2.7-4.6-4.5-5.9c-2-1.4-5.4-1-5.5,2   c-0.1,1.4,1,3.5,2.1,4.4c2.1,1.9,5.9,2,7.3,4.6c0.9,1.5,0.2,5.7,1.7,6.6c0.3,0.2,0.5,0.2,0.7,0.2c1.8-0.3,1.7-7.2,1.9-8.5   c0.4-3.7,1.7-7,5.1-8.9c2.7-1.5,7.3-2.3,9.8,0.3c1.5,1.6,1.5,4.8,0.5,6.3c-0.7,1.1-2.1,2.1-3.4,2c-1,0-2.6-1-2-2.3   c0.4-0.8,0.6-0.2,1.2-0.3c1.2-0.2,2-1.2,1.4-2.4c-1.5-2.9-6.2,2.3-3.8,5.2c1.9,2.3,4.8,2,6.5,0.5c1.7-1.4,2.1-4.1,2.1-5.9   c-0.1-2.2-1.3-4.3-3.2-5.5c-4.2-2.5-10.2-0.4-12.9,3.3c-1.9,2.5-3.2,6.7-3.2,9.8c-1.2-4.2-0.6-13.7,0.5-18.4   c0.8-3.6,1.4-5.9,4.5-8.8c2.5-2.4,6.4-4.6,9.3-2.3c1,0.8,1.7,2.1,1.5,3.4c-0.2,1.1-1.5,2.1-2.7,1.6c1.6-0.5,1.4-2.4,0.4-3   c-1.1-0.6-2.3,0.4-2.9,1.3c-1.7,2.6,1.6,4.6,3.8,3.7c2.5-1,3.5-3.7,2.3-6.1c-1.1-2.3-3.7-3.8-6.2-3.3c-1.6,0.3-3.2,1.2-4.2,1.8   c-1.8,1.1-3,2.6-4.7,5.4c0.1-0.1,0.3-1.4,0.4-1.7c0.4-1.5,0.8-3.1,1.2-4.6c0.7-2.7,1.6-5.4,2.6-8.1c1-2.8,2.7-5.6,4.6-7.9   c3.6-4.1,12-6.4,14.9-0.2c1,2.1,0.5,6-1.4,7.6c-1.6,1.4-4.1,0.8-4.6-1.3c3.5,0.4,2.5-3.8,0.1-3c-1.4,0.5-2.7,2-1.7,4.3   c0.9,2.1,4.9,2.7,6.2,2c4.8-2.5,4.1-9.4,1.6-12.2c-1.7-1.9-4.4-2.8-6.2-2.8c-3.5-0.1-7,0.9-11.3,6.3c1.5-4.9,6.8-15.3,12.6-19.3   c2.4-1.6,6.9-3.8,9.4-1.8c2.3,1.9,2.3,5.6,0.1,7.6c-1.1,1-3,1.7-3.9,0.3c-0.5-0.8-0.4-1.4-0.4-1.4C94.8,43.5,96.6,43,96.3,41.4z    M60.7,98.9c-1.3-0.8-2.7-1.9-3-3.4c-0.8-3.6,3.4-2.2,4.9-0.4c1.5,1.8,2.5,3.9,3.1,6.4C64.5,100.5,61.9,99.6,60.7,98.9z M67.8,76.2   c-1.2-1-2.4-2-3.7-2.9c-1.9-1.4-4.3-5-1.5-6.2c2-0.8,3.3,1.3,4,2.8C67.7,72.1,67.9,74.5,67.8,76.2z M73.5,59.3   c-1.2-2.6-3.7-4.7-4.3-7.6c-0.3-1.3,0.1-2.8,1.5-3.1c0.1,0,0.3,0,0.4,0c2.2,0,3,2.8,3.3,4.5C74.7,55.3,74.2,57.9,73.5,59.3z" fill="#e06ce6"></path>
                <path d="M102.2,240.5c1-1.6,0.7-4.2-0.7-7.5c2.7,3.4,5.2,4.8,7.6,5c1.2,0.1,2.9-0.5,3.5-1.4c0.8-1.1,0.2-2.4,0.5-3.7   c0.3-1.5,1.8-3,0.5-4.8c-0.8-1.1-2.9-2.3-4.8-2.3c-0.7,0-1.8,0.2-3.3,0.8c3.2-2.2,3.1-4.6,2.1-6.2c-0.4-0.6-1.4-0.8-2.1-1.2   c-1-0.6-1.5-1.8-2.5-2.2c-1.2-0.4-2.9,0.1-3.6,0.9c-1,1-1.1,4.3-0.9,7c-0.1-1.6-2.1-4.3-3.7-5.2c-1.2-0.6-2.6-0.8-3.9,0.2   c-1.4,1-1.3,2.6-1.7,4c-0.3,1-1.1,1.7-1.2,2.4c-0.7,3.1,3.1,4.8,7.8,4c-3.2,1.8-4.3,4.6-3.9,6.8c0.3,1.5,2,2.8,3.6,3.3   c0.5,0.2,1.1,0.1,1.7,0.3c0.5,0.2,1.1,1,1.7,1.1C99.9,242.3,101.6,241.5,102.2,240.5z M108.4,226.5c1.7,0,4.3,1.5,4.6,2.8   c0.4,1.5-0.8,2.2-1,3.6c-0.2,1.3,0.2,2.6-0.6,3.4c-0.6,0.7-1.9,0.8-3.3,0.6c-3.2-0.7-5.7-2.8-6.8-5.2c1,0.3,1.4,1.8,2.5,1.4   c0.2-1.3-1.9-1.3-1.6-2.3c0.6,0.1,4.2,1.5,4.4,0.5c0.2-0.9-1.3-0.7-1.7-0.7c-1.4-0.2-2.8-0.8-3.5-1.4c0.4-0.7,1.2-0.6,1.8-0.9   c0.7-0.3,1.3-0.8,2-1.1C105.9,226.9,107.6,226.5,108.4,226.5z M102.4,218c1.2,0.3,1.7,1.4,2.5,1.9c0.9,0.5,1.7,0.6,2.2,1.4   c0.4,0.6,0.5,1.6,0.2,2.6c-0.6,1.8-2.8,3.1-5,3.4c-0.2-1,0.8-1.4,1.1-2.3c-0.1-0.2-0.1-0.4-0.3-0.5c-1,0.6-1.1,2.5-2.3,2.8   c-0.7-1,0.7-2.8-0.2-3.4c-0.7,0.2-0.6,1.4-0.9,2.2C98.5,224,98.3,217.1,102.4,218z M91.4,229.9c-0.9-0.3-2.3-0.8-2.5-2.9   c-0.1-1,1-1.8,1.3-2.6c0.5-1.6,0.4-4.3,2.7-4.4c1.5,0,3.1,1.5,3.9,2.6c0.5,0.7,0.9,1.7,1.2,2.5c0.1,0.3,0.3,2.7,0.5,2.8   c-1.2-0.5-1.3-2.3-2.7-2.3c-0.5,0.7,0.4,1,0.5,1.6c-1.2,0-2.6-0.7-3.2-0.1c-0.1,0.8,0.7,0.6,1.3,0.7c1.2,0.2,2.8,0.6,3.4,1.3   C96.6,230.2,93.5,230.7,91.4,229.9z M98.9,241.1c-0.6-0.2-0.9-1.1-1.8-1.3c-1.2-0.4-2.5,0.1-3.6-1.1c-1.4-1.4-1-3.3-0.3-4.9   c0.4-0.8,1-1.6,1.7-2.2c0.3-0.2,2.4-0.7,2.4-0.6c-0.4,0.7-0.7,1.5-1.1,2.2c0.1,0.3,0.2,0.6,0.6,0.7c0.6,0,0.3-1,0.9-1   c0.4,0.9-0.6,2.7,0.9,3c0.5-1.2-0.7-4.3,0.7-5.3c2.1,3.1,4.1,7.4,1.9,9.8C100.8,240.8,99.7,241.3,98.9,241.1z" fill="#e06ce6"></path>
                <path d="M127.9,218.1c2,0.2,4.2-1.6,5.3-3.4c0.4-0.6,0.5-1.4,1-2c0.4-0.6,1.6-1.1,1.9-1.7c0.7-1.4,0.3-3.8-0.8-4.9   c-1.6-1.7-5-2.3-9.6-1.5c5.1-2.3,7.8-4.9,8.7-7.9c0.5-1.4,0.3-3.7-0.6-4.9c-1.1-1.3-2.9-1.1-4.5-1.9c-1.8-0.9-3.2-3.2-5.8-2.2   c-1.6,0.6-3.8,2.9-4.4,5.3c-0.2,0.8-0.3,2.3-0.1,4.3c-1.7-4.7-4.8-5.4-7-4.6c-0.9,0.3-1.4,1.5-2.1,2.2c-1.1,1.1-2.8,1.3-3.5,2.5   c-0.9,1.4-0.8,3.6,0,4.8c1,1.6,5,2.8,8.5,3.5c-2.1-0.4-6.1,1.2-7.7,2.9c-1.2,1.2-1.8,3-1.1,4.9c0.8,2.1,2.8,2.5,4.5,3.5   c1.2,0.7,1.8,1.9,2.5,2.3c3.7,1.9,7-2.3,7.6-8.4C121.8,215.6,125,217.8,127.9,218.1z M134.7,207.3c0.4,0.7,0.8,2.3,0.2,3.2   c-0.4,0.7-1.6,0.8-2.3,1.8c-0.8,1.4-0.6,3.1-2.5,4.2c-2.3,1.3-4.4,0.2-6.3-1.2c-0.9-0.7-1.7-1.7-2.1-2.9c-0.1-0.4-0.1-3.2,0-3.2   c0.8,0.7,1.6,1.4,2.3,2.1c0.4,0,0.8,0,1.1-0.5c0.3-0.7-1.2-0.8-0.9-1.5c1.3-0.2,3.2,1.6,4.1-0.1c-1.4-1-5.5-0.6-6.4-2.6   C126.4,204.8,132.4,203.7,134.7,207.3z M107.3,198.5c0.7-1.4,2.4-1.6,3.3-2.5c1-1,1.3-1.9,2.5-2.3c0.9-0.3,2.2-0.1,3.3,0.7   c2.1,1.4,3,4.5,2.7,7.4c-1.3-0.1-1.5-1.5-2.5-2.1c-0.3,0-0.6,0-0.8,0.2c0.4,1.5,2.8,2.1,2.8,3.8c-1.5,0.5-3.2-1.8-4.4-0.8   c0,1,1.6,1.2,2.4,1.8C113.5,205.4,104.7,203.3,107.3,198.5z M118.5,216.2c-0.7,1-1.7,2.7-4.4,2.2c-1.3-0.2-1.9-1.9-2.9-2.4   c-1.8-1.1-5.3-1.9-4.6-4.8c0.5-1.9,2.9-3.4,4.5-4c1.1-0.4,2.4-0.6,3.5-0.7c0.4,0,3.5,0.5,3.6,0.3c-1,1.4-3.2,0.8-3.7,2.6   c0.7,0.8,1.4-0.2,2.1-0.1c-0.4,1.5-1.7,3-1.2,4c1,0.4,1-0.7,1.3-1.4c0.7-1.5,1.7-3.3,2.7-3.9C120.5,209.8,120.1,213.8,118.5,216.2z    M120.4,200.8c-0.1-1-0.6-1.9-0.8-2.8c-0.1-1-0.1-3.2,0.2-4.2c0.6-2.1,3.2-4.9,5.1-4.9c2,0,2.5,1.7,4.2,2.4   c1.5,0.7,3.3,0.6,4.1,1.8c0.7,1,0.4,2.6-0.4,4.3c-1.9,3.8-5.4,6.2-8.8,6.8c0.7-1.1,2.7-1.1,2.6-2.7c-1.5-0.6-2.2,1.9-3.4,1.2   c0.3-0.8,3.2-4.7,2-5.3c-1-0.5-1.3,1.4-1.5,1.9c-0.7,1.6-1.9,3.3-2.9,4C120.1,202.6,120.5,201.7,120.4,200.8z" fill="#e06ce6"></path>
                <path class="matchHeadingColourSVG" d="M108.5,242.3c-1.7,0.7-2.9,2.4-3.8,3.5c-2.5,3.3-5.4,8.8-3.9,14.6c0.9,3.8,3.3,7.1,3.4,11.4c0,1.2-0.5,2.2-0.1,3.4   c2.9-0.5,4.7-4.1,7-6.4c1.1-1.1,2.4-2.4,3.2-3.6c3.9-5.7,3-14-1.1-19.5C112.3,244.5,110,242.8,108.5,242.3z M103.8,249.7   c-0.1,5.1,0.6,11.6,0.9,16.9C102.4,261.9,100,254.2,103.8,249.7z M105.9,262.2c-0.9-4.7-2-13.6,1.6-16.1c0.6,2.8-0.5,6-0.9,9.2   C106.3,257.7,106.7,260.1,105.9,262.2z M107,268.5c-0.5-7.9,0.6-17,1.8-23.8c2.6,2.4,3.7,7.8,3.1,12.4   C111.5,261.1,109.2,266.9,107,268.5z M109.8,267.7c2.7-5,5.2-14.9,1.7-21.2C117.5,251.6,117.1,260.7,109.8,267.7z" fill="#9a7594"></path>
                <path d="M93.3,204.7c2.3-0.4,5.4,0.9,7.2-1.8c1.2-1.8,1.8-5.4,0.7-8.2c-0.4-1-1.2-2.5-2.9-4.3c4.9,3.5,8.4,2,10-0.3   c0.7-0.9,0.4-2.5,0.6-3.6c0.4-1.8,1.8-3.1,1.8-4.8c-0.1-1.9-1.7-4.1-3.3-4.8c-2-0.9-6.8,0.7-10.7,2.4c2.3-1,5.1-5.4,5.5-8.2   c0.3-2-0.3-4.2-2.3-5.5c-2.2-1.5-4.4-0.6-6.8-0.4c-1.6,0.1-3.1-0.6-4.1-0.5c-4.9,0.7-5.2,7-1.7,13.4c-4.4-3.7-9-3.7-12-2   c-2.1,1.2-2.9,4.5-2.8,6.9c0,0.8,0.5,1.7,0.4,2.6c0,0.9-0.8,2.1-0.7,3c0.2,1.9,2.3,3.9,4.1,4.3c2.8,0.6,6.4-1.2,10.4-5.1   c-3.4,5.7-4.2,10.1-3.1,13.7c0.5,1.7,2.2,3.9,4,4.3C89.6,206.4,91.2,205,93.3,204.7z M108.9,181.3c0.2,1.9-1.2,3.2-1.4,4.7   c-0.3,1.7,0,2.8-0.8,4c-0.7,0.9-2,1.6-3.7,1.6c-3,0.1-6-2.3-7.7-5.4c1.4-0.8,2.5,0.4,3.9,0.4c0.3-0.2,0.6-0.4,0.6-0.8   c-1.4-1.1-4.2-0.2-5.3-1.8c1.2-1.5,4.4-0.4,4.9-2.2c-0.6-1-2.4-0.1-3.6-0.1C98.2,178.8,108.1,174.8,108.9,181.3z M85.8,171.7   c0-1.5-0.2-3.8,2.8-5.2c1.4-0.7,3.2,0.5,4.5,0.4c2.5-0.2,6.5-1.8,7.8,1.5c0.9,2.2-0.5,5.3-1.7,7.1c-0.8,1.2-1.9,2.2-3,3.1   c-0.4,0.3-3.8,1.9-3.8,2.2c0-2,2.6-3,1.8-5.1c-1.3-0.3-1.2,1.2-2,1.6c-0.6-1.7-0.4-4.1-1.5-4.7c-1.3,0.3-0.4,1.4-0.3,2.3   c0.4,1.9,0.6,4.4,0,5.7C88.3,179.4,85.9,175.2,85.8,171.7z M76.1,191.5c-0.9-0.4-2.3-1.7-2.4-2.9c-0.1-1,1.1-1.9,1-3.4   c-0.1-1.9-1.5-3.5-0.4-5.8c1.3-2.8,4.2-3.2,7-3.1c1.4,0.1,2.9,0.5,4,1.3c0.4,0.3,2.3,3.1,2.2,3.1c-1.2-0.1-2.5-0.2-3.7-0.4   c-0.5,0.3-0.8,0.6-0.7,1.3c0.3,0.9,1.7-0.1,1.9,0.8c-1.1,1.1-4.3,0.7-3.9,2.9c2,0.1,5.8-3.2,8.1-1.8   C85.9,188.3,80.8,193.5,76.1,191.5z M87.4,204.3c-1.3-0.5-2.2-2.3-2.6-4.5c-0.8-5,1.1-9.7,3.9-12.7c0,1.6-1.9,3-0.7,4.4   c1.9-0.4,0.8-3.4,2.5-3.6c0.2,1,0.1,6.8,1.6,6.6c1.4-0.2,0.3-2.2,0.1-2.9c-0.4-2.1-0.4-4.5,0.1-5.8c1.2,0.2,1.5,1.4,2.2,2.2   c0.8,0.9,1.9,1.4,2.7,2.2c0.8,0.8,2.3,3.1,2.7,4.3c0.9,2.5,0.2,7-1.6,8.2c-2,1.4-3.6,0.1-5.7,0.5C90.7,203.6,89.1,204.9,87.4,204.3   z" fill="#e06ce6"></path>
             </g>
             <g>
                <path class="matchHeadingColourSVG" d="M947,105.5c5,1.8,8.6,0.4,12.1-0.8c3.6-1.2,7.9-3.4,10.8-3.4c-0.6-1.6-2-2.9-3.2-4.3c-1.2-1.5-2.6-2.9-4.3-3.9   c-3.9-2.4-9.2-2.7-12.6-2.5c-3.3,0.1-6.9,0.6-10,0.3c-2.1-0.2-3.6-0.5-5.3,0.4c0,1.4,1.6,4.6,2.8,6.6   C938.8,100.4,943.6,104.3,947,105.5z M938.2,97.3c0.9,0.5,2.4,2.4,3,3.1C939.8,100.4,938.6,98.5,938.2,97.3z M954.8,105.3   c-3.9,1-9.2,0.1-12.9-4c6.4,4,14.8,3,20.1,0.7C960.6,103.3,957.6,104.6,954.8,105.3z M945.4,91.9c4.5-0.2,10.7-1.5,16.5,1.8   c0.5,0.3,2,1.4,2.8,2.1c0.6,0.5,1.1,1.4,1.3,2c-3.7-1.1-7.1-3.2-11.1-3.9c-1.7-0.3-3.8,0-5.7,0s-4-0.1-5.9-0.4   c-1.8-0.3-4-0.9-5.6-1.4C939.6,92.1,942.7,92,945.4,91.9z M963.6,98.2c-2.3,0.4-4.9-0.3-7.6-0.3c-4.7,0.1-11.1,0-15-3.5   C948.2,94.9,956.4,93.5,963.6,98.2z M951.6,98.5c4.2,0.3,8.7-0.3,13,1.3c-1.3,0.9-3,1.2-4.5,1.9c-5.3,2.3-12.7,2.4-17.3-0.8   c-2.1-1.4-5-4.7-5.8-7.6C941.5,96.4,946.5,98.1,951.6,98.5z" fill="#9a7594"></path>
                <path class="matchHeadingColourSVG" d="M939.5,86.7c8.6,1.1,14.8-7.8,15.9-17.4c0.2-2.5,0-5,0.7-7.1c0.2-0.9,0.7-1.6,0.6-2.1c-0.9-0.2-2,0.3-3.2,1.3   c-1.8,1.5-4.5,2.9-6.9,4.3c-3,1.7-6,2.9-7.8,7.3c-1.8,4.3-1,8.5-1.3,12.7C937.4,86.3,939.1,86.7,939.5,86.7z M954.4,65.2   c0.3,3.6-0.3,8.6-2.5,13.1c-0.3,0.5-0.6,1.2-1,1.7c-2.8,3.9-6.5,6.3-10.6,5.8c1.6-1.5,4.3-2.7,6.1-4.8c0.9-1,1.5-2.3,2.3-3.3   c1.6-2.1,2.7-3.9,3.5-6.1C953,69.4,953.1,67.2,954.4,65.2z M942.4,82.4c2.3-3.4,5.4-7.2,8.2-9.4C948.6,76.4,945.6,81.5,942.4,82.4z    M951,69c-2.9,5.2-7.3,11.1-10.6,13.6c2.5-5.7,7.4-11.6,11.5-16.5C952.1,67,951.5,68.1,951,69z M948.4,66c0.8-0.5,1.9-1.3,3.2-1.2   c-4.9,5.7-9.1,11.7-11.3,16.3c0.8-3.3,2.9-10.4,6-13.6C946.9,66.9,947.6,66.5,948.4,66z M940.1,72.3c1-1.8,2.8-3.6,4.5-4   c-3.6,6.1-4.3,9.7-5.8,14.4C938.3,80,938.3,75.6,940.1,72.3z" fill="#9a7594"></path>
                <path d="M973.7,166.7c-3,0-8.3,2-12.9,4.7c3.6-2.8,6.5-9.5,5.9-12.6c-0.4-1.8-1.9-5-3.6-6.4c-3.4-2.9-9.5-0.9-12.3,2.2   c-2.4,2.6-2.8,6.5-2.6,9.1c0.2,3.2,1.2,6.1,1.7,8.5c-3.3-5.2-8.6-11.3-13.5-12.2c-2.4-0.4-6.9,0.4-8.7,2.6   c-1.4,1.7-1.8,4.5-1.6,6.2c0.5,4.8,6.1,8.5,11.1,9.7c1.6,0.4,3.9,0.6,6.6,0.3c-7.3,2.2-14.3,7.6-16.5,13.6c-1,2.8-0.1,7.9,3.1,9.9   c5.1,3.2,12.3,0.4,16.6-4.7c2.2-2.6,3.7-5.8,5.3-11.3c1.2,5.3,2.3,12.2,5.9,16c5.2,5.5,13.2,1.5,13.8-5.1   c0.4-4.8-4.9-11.7-11.4-16.2c6,2.3,15.2,1.9,19.1-2.6c2.1-2.4,2.5-6,0.5-8.6C978.6,167.8,976.2,166.6,973.7,166.7z M929.3,172   c-1.9-2-1.8-5.5-0.7-7.2c1.6-2.6,4.9-3.4,7.9-3c6,0.9,11,8.1,13.2,13.2c-4.1-1.3-9.3-5.8-13.3-5.6c-0.7,1.9,1.6,1.9,2.8,2.2   c2.8,0.7,7.6,2.5,10.7,5.2C941.8,178.8,934.4,177.6,929.3,172z M933.1,201.2c-6.2-2.3-4.5-9.6-0.6-13.8c5.1-5.4,12-9,18.6-8.8   c-2.8,5.7-8.9,8-12.4,12.5c0.9,1.4,2,0.3,2.9-0.3c2.8-1.8,6.9-7.5,9.8-9.5C952.3,191.6,941.1,204.1,933.1,201.2z M958.8,161.5   c-0.6-0.7-1.1-0.5-1.6-0.3c-2.3,3.6-3.5,9.4-5.6,12.5c-1-2.3-1.5-4.7-1.8-7.1c-0.5-4.5-0.7-8.5,2.9-11.7c2.5-2.2,6.7-3.6,9.4-0.7   c2.9,3.2,3.2,6.6,2.5,9.4c-0.7,2.8-2.7,5-4.8,6.8c-1.7,1.5-4.5,4.5-6.7,5.2c0.5-4.1,2.1-7.9,4.2-11.2   C957.9,163.5,959.3,162.8,958.8,161.5z M968.2,201c-2.3,2.7-6.2,2.9-8.9,0.5c-2-1.9-2.7-5.2-3.6-7.8c-1.2-3.7-3.2-6.9-2.2-12.1   c1.6,2.5,2.1,6.7,4.1,9.7c0.6,0.9,1.4,2.6,2.9,2.3c1.6-1.6-0.6-2.5-1.4-3.4c-2.2-2.8-3.7-7.9-5-10.6   C962.8,180.5,973.9,194.3,968.2,201z M977.8,177.5c-4.7,4.6-15.7,4.8-23.7,0.1c2.8-1.4,9.3-1.6,12.9-1c1.3,0.2,3.9,0.4,3.4-1.3   c-1.2-0.4-4.1-0.5-6-0.5c-3.1,0-5.3,1-7.9,0.8c2.2-3,9.7-6.2,13-6.9c3.1-0.6,6.4-0.6,8.7,1.8C980.4,172.8,980,175.5,977.8,177.5z" fill="#e06ce6"></path>
                <path class="matchHeadingColourSVG" d="M953.4,122.6c-0.3,1.5,0.7,4.4,1.4,6c0,0.2,0.1,0.4,0.2,0.6c1,2.2,3.1,4.8,4.6,6.1c1.1,1.1,3.4,2.6,5,3.2   c2.6,1,5.2,1,7.9,0.6c2.4-0.4,4.9-1.1,7.4-1.1c0.2-0.8-0.5-1.7-0.9-2.3c-0.5-0.8-1.1-1.9-1.5-2.8c-3.6-7.6-8.1-12-15.6-12.1   C960.2,120.8,954.3,121.8,953.4,122.6z M955,124.6c5.9,4.1,10.6,9.6,20.8,12.5C965.9,139.5,955.9,135.3,955,124.6z M967.9,132.3   c-4.1-2.3-8.3-4.5-10.7-7.9c9.3,1.4,15.7,8.5,19.6,11.6C973.5,135,970.1,133.5,967.9,132.3z M976.2,133.6c-5-3.8-9.5-8.4-19.4-10.6   c1-0.7,3.9-1.5,5.3-1.4C970.1,121.9,973.8,128.7,976.2,133.6z" fill="#9a7594"></path>
                <path d="M932.5,155c1.7,0.2,2.3-1.8,1.7-2.9c-1.1-2-3.9-1.9-5.1-0.5c-1.6,1.9-0.9,5.3,1.4,6.8c2.5,1.6,5.8,0,7.4-2.1   c1-1.3,1.9-3.6,1.9-5.3c1.5,2.1,2.9,4.2,4,6.5c0.1,0.2,2.6,5.1,2.9,3.7c0.6-2.9-3.3-7.8-4.8-10.1c2.5,1.7,7.2,3.7,9.6,1.2   c1.7-1.7,1.2-5.1-1.5-6.4c-2.7-1.2-6.2,0.9-8.9,0.7c-2.1-0.2-3-2.2-3.9-3.7c-0.1-0.2-0.2-0.2-0.3-0.1c-0.4,0.3-0.7,1.9-0.7,1.9   c-0.1,0.9,1.1,2.9,1.4,3.8c0.6,1.8,1,3.7,0,5.4c-1.2,2-3.5,4.4-6.3,2.5c-1.9-1.2-1.9-4.6,0.5-4.2C930.9,153,931.4,154.7,932.5,155z    M948.7,147c3.1,1.4,2.3,3.9,0.7,4.6c-2.6,1.1-7-1.4-8.8-3.2C943,148.6,946.5,146.1,948.7,147z" fill="#e06ce6"></path>
                <path d="M925.1,267.7c0.4,2,3.1,1.6,4.1,0.3c2-2.6-0.8-5.8-3.7-5.4c-4.3,0.6-6.1,6-5.1,8.8c1.5,4.1,6.6,4.4,9.9,3.3   c2.3-0.7,5.5-3.1,7.5-5.3c4.1-4.5,6.2-10.2,8.2-14.8c0,1.3,0.4,3.9,0.9,4.9c1,2.2,3.6,3.8,5.6,1.8c1.5-1.5,1.4-4.3,0.5-6.1   c-1.1-2.3-3.1-3.5-3.7-5.6c-1.2-4.4,2.5-9.6,3.1-15.2c0.2,2.5,0.9,4.7,1.8,6.3c1.1,1.7,3.3,4.1,5.4,2.6c1.4-1,2.5-3.1,1.6-5.1   c-1.4-2.9-5.7-4.4-6.9-6.9c-0.9-1.9,0.5-6.5,0.9-8.8c0.6-3.2,0.5-8.1,0.1-11.7c1,2,2.7,4.6,4.5,5.9c2,1.4,5.4,1,5.5-2   c0.1-1.4-1-3.5-2.1-4.4c-2.1-1.9-5.9-2-7.3-4.6c-0.8-1.5-0.1-5.7-1.7-6.6c-0.3-0.2-0.5-0.2-0.7-0.2c-1.9,0.3-1.7,7.2-1.9,8.5   c-0.4,3.8-1.7,7-5.1,8.9c-2.8,1.5-7.3,2.3-9.8-0.3c-1.5-1.6-1.5-4.8-0.5-6.3c0.7-1.1,2-2,3.4-2c1,0.1,2.7,1,2,2.3   c-0.4,0.8-0.6,0.2-1.2,0.3c-1.2,0.1-2,1.2-1.4,2.4c1.6,2.9,6.2-2.3,3.8-5.2c-1.9-2.3-4.8-2-6.5-0.5c-1.7,1.4-2.1,4-2.1,5.9   c0.1,2.3,1.3,4.3,3.2,5.5c4.1,2.5,10.2,0.4,12.9-3.3c1.9-2.5,3.2-6.7,3.2-9.8c1.2,4.2,0.6,13.7-0.5,18.4c-0.9,3.6-1.5,5.9-4.5,8.8   c-2.5,2.4-6.4,4.6-9.3,2.3c-1-0.8-1.7-2.1-1.5-3.4c0.2-1.2,1.5-2.1,2.7-1.6c-1.6,0.5-1.5,2.4-0.4,3s2.3-0.5,2.9-1.3   c1.7-2.5-1.6-4.6-3.8-3.7c-2.5,0.9-3.5,3.7-2.3,6.1c1.1,2.3,3.7,3.8,6.2,3.3c1.6-0.3,3.2-1.2,4.2-1.8c1.8-1.1,3-2.6,4.7-5.4   c-0.1,0.2-0.3,1.4-0.4,1.7c-0.5,1.5-0.8,3.1-1.2,4.6c-0.7,2.8-1.6,5.4-2.6,8.1c-1,2.9-2.6,5.6-4.6,7.9c-3.6,4.1-12.1,6.4-14.9,0.2   c-0.9-2-0.5-6,1.4-7.6c1.6-1.4,4.1-0.8,4.6,1.3c-3.5-0.4-2.5,3.8-0.1,3c1.4-0.4,2.7-2,1.7-4.3c-0.9-2-4.8-2.7-6.2-2   c-4.8,2.5-4.2,9.4-1.6,12.2c1.8,1.8,4.4,2.7,6.2,2.8c3.5,0.1,7-0.9,11.3-6.3c-1.5,4.9-6.7,15.3-12.6,19.3c-2.4,1.7-7,3.8-9.4,1.8   c-2.4-1.9-2.3-5.6-0.1-7.6c1.1-1,3-1.7,3.9-0.3c0.5,0.8,0.4,1.4,0.4,1.4C926.6,265.4,924.8,265.9,925.1,267.7z M960.8,210   c1.3,0.8,2.7,1.8,3,3.4c0.8,3.6-3.4,2.2-4.9,0.4c-1.5-1.7-2.5-3.8-3.1-6.4C957,208.4,959.5,209.3,960.8,210z M953.6,232.7   c1.2,1,2.4,2,3.7,2.9c1.9,1.4,4.3,5,1.5,6.2c-2,0.8-3.3-1.4-4-2.8C953.7,236.8,953.5,234.4,953.6,232.7z M948,249.5   c1.2,2.6,3.7,4.7,4.3,7.6c0.2,1.3-0.1,2.9-1.5,3.1c-0.1,0-0.3,0-0.4,0c-2.2,0-3-2.8-3.3-4.5C946.7,253.6,947.3,251,948,249.5z" fill="#e06ce6"></path>
                <path d="M919.5,68.1c-1,1.6-0.8,4.2,0.7,7.5c-2.7-3.4-5.2-4.9-7.6-5c-1.1-0.1-2.9,0.4-3.5,1.4c-0.7,1.1-0.2,2.3-0.5,3.7   c-0.3,1.5-1.7,3.1-0.5,4.8c0.8,1.1,2.9,2.3,4.8,2.3c0.7,0,1.8-0.2,3.3-0.8c-3.2,2.2-3.1,4.7-2.1,6.2c0.4,0.6,1.5,0.8,2.1,1.2   c1,0.7,1.5,1.9,2.5,2.2c1.1,0.4,2.8-0.1,3.6-0.9c0.9-1,1.1-4.3,0.9-7c0.1,1.6,2.1,4.4,3.7,5.2c1.2,0.6,2.6,0.7,3.9-0.2   c1.3-1,1.3-2.5,1.7-4c0.3-1.1,1.1-1.8,1.2-2.4c0.6-3.1-3.1-4.7-7.8-4c3.2-1.8,4.3-4.6,3.9-6.8c-0.3-1.5-2.1-2.8-3.6-3.3   c-0.6-0.1-1.2-0.1-1.7-0.3c-0.6-0.2-1.1-1-1.7-1.1C921.6,66.6,919.9,67.4,919.5,68.1z M913,82.4c-1.7,0-4.3-1.4-4.6-2.8   c-0.4-1.5,0.8-2.3,1-3.6c0.3-1.2-0.2-2.5,0.6-3.4c0.6-0.7,1.9-0.9,3.3-0.6c3.2,0.6,5.6,2.8,6.8,5.2c-0.9-0.3-1.4-1.8-2.5-1.4   c-0.2,1.2,1.9,1.2,1.6,2.3c-0.7-0.1-4.2-1.5-4.4-0.5c-0.2,0.8,1.3,0.6,1.7,0.7c1.3,0.2,2.8,0.8,3.5,1.4c-0.4,0.7-1.1,0.6-1.8,0.9   c-0.7,0.2-1.3,0.8-2,1.1C915.5,82,913.9,82.4,913,82.4z M919,90.8c-1.1-0.2-1.6-1.4-2.5-1.9s-1.7-0.6-2.2-1.4   c-0.5-0.6-0.6-1.6-0.2-2.6c0.7-1.8,2.8-3.1,5-3.4c0.2,1-0.8,1.5-1.1,2.3c0,0.2,0.1,0.4,0.3,0.5c1-0.6,1.1-2.5,2.3-2.8   c0.6,1-0.8,2.7,0.2,3.4c0.7-0.2,0.6-1.4,0.9-2.2C922.9,84.9,923.1,91.8,919,90.8z M930.1,79c0.9,0.4,2.3,0.8,2.5,2.9   c0,1-1.1,1.8-1.3,2.6c-0.5,1.6-0.4,4.4-2.7,4.4c-1.5,0.1-3.1-1.5-3.9-2.6c-0.5-0.7-0.9-1.6-1.2-2.5c-0.1-0.3-0.3-2.7-0.5-2.8   c1.2,0.5,1.3,2.3,2.7,2.3c0.5-0.7-0.5-1-0.5-1.6c1.2,0,2.6,0.7,3.2,0.1c0.1-0.9-0.7-0.6-1.3-0.7c-1.2-0.2-2.8-0.6-3.4-1.3   C924.8,78.7,927.9,78.2,930.1,79z M922.5,67.9c0.6,0.1,0.9,1,1.8,1.3c1.1,0.4,2.4-0.1,3.6,1.1c1.4,1.4,1,3.2,0.3,4.9   c-0.3,0.9-0.9,1.7-1.7,2.2c-0.3,0.1-2.4,0.6-2.4,0.6c0.4-0.8,0.7-1.5,1.1-2.2c0-0.4-0.2-0.6-0.6-0.7c-0.6,0-0.3,1.1-0.9,1   c-0.4-0.9,0.6-2.7-0.9-3c-0.5,1.2,0.7,4.2-0.7,5.3c-2.1-3.1-4.2-7.4-1.9-9.8C920.6,68.2,921.7,67.6,922.5,67.9z" fill="#e06ce6"></path>
                <path d="M893.6,90.7c-2-0.2-4.2,1.7-5.3,3.4c-0.4,0.6-0.5,1.4-1,2c-0.4,0.6-1.6,1-1.9,1.7c-0.7,1.4-0.3,3.8,0.8,4.9   c1.6,1.7,5,2.3,9.6,1.5c-5,2.3-7.7,4.9-8.7,7.9c-0.5,1.5-0.4,3.8,0.6,4.9c1.1,1.4,2.9,1.1,4.5,1.9c1.8,0.8,3.3,3.2,5.8,2.2   c1.6-0.6,3.8-2.9,4.4-5.3c0.2-0.8,0.3-2.2,0.1-4.3c1.7,4.7,4.8,5.3,7,4.6c0.8-0.3,1.4-1.5,2.1-2.2c1.1-1.1,2.7-1.3,3.5-2.5   c0.8-1.3,0.8-3.6,0-4.8c-1-1.6-5-2.9-8.5-3.5c2.1,0.4,6.1-1.2,7.7-2.9c1.2-1.2,1.9-3,1.1-4.9c-0.9-2.1-2.8-2.5-4.5-3.5   c-1.1-0.7-1.7-1.9-2.5-2.3c-3.7-1.9-7,2.4-7.6,8.4C899.6,93.3,896.4,91.1,893.6,90.7z M886.8,101.8c-0.4-0.7-0.8-2.3-0.2-3.2   c0.4-0.7,1.7-0.7,2.3-1.8c0.8-1.4,0.6-3.1,2.5-4.2c2.3-1.3,4.4-0.2,6.3,1.2c0.9,0.8,1.7,1.8,2.1,2.9c0.1,0.4,0,3.2,0,3.2   c-0.7-0.7-1.5-1.4-2.3-2.1c-0.5-0.1-0.9,0-1.1,0.5c-0.3,0.7,1.2,0.8,0.9,1.5c-1.3,0.2-3.2-1.6-4.1,0.1c1.3,1,5.5,0.5,6.4,2.6   C895,104.1,889,105.2,886.8,101.8z M914.1,110.5c-0.8,1.4-2.4,1.6-3.3,2.5c-1,1-1.3,1.9-2.5,2.3c-0.9,0.3-2.1,0.1-3.3-0.7   c-2.1-1.4-3-4.5-2.7-7.4c1.3,0.1,1.5,1.5,2.5,2.1c0.3,0,0.6,0,0.8-0.2c-0.5-1.5-2.8-2.2-2.8-3.8c1.5-0.5,3.2,1.8,4.4,0.8   c0.1-0.9-1.5-1.2-2.4-1.8C908,103.5,916.7,105.6,914.1,110.5z M902.8,92.7c0.7-1,1.7-2.7,4.4-2.2c1.3,0.2,1.9,1.8,2.9,2.4   c1.8,1.1,5.3,1.9,4.6,4.8c-0.4,1.9-2.9,3.4-4.5,4c-1.1,0.5-2.3,0.7-3.5,0.7c-0.4,0-3.5-0.5-3.6-0.3c1-1.3,3.2-0.8,3.7-2.6   c-0.7-0.8-1.3,0.2-2.1,0.1c0.4-1.5,1.7-3.1,1.2-4c-1-0.4-1,0.7-1.3,1.4c-0.6,1.5-1.7,3.3-2.7,3.9C900.9,99.2,901.3,95.2,902.8,92.7   z M901,108c0.1,0.9,0.7,1.9,0.8,2.8s0.1,3.1-0.2,4.2c-0.6,2.2-3.3,4.9-5.1,4.9c-2.1,0-2.6-1.7-4.2-2.4c-1.5-0.7-3.2-0.6-4.1-1.8   c-0.7-1-0.4-2.6,0.4-4.3c1.9-3.8,5.4-6.1,8.8-6.8c-0.7,1.1-2.7,1.2-2.6,2.7c1.5,0.7,2.2-1.9,3.4-1.2c-0.3,0.8-3.2,4.7-2,5.3   c1.1,0.5,1.3-1.4,1.5-1.9c0.7-1.7,1.9-3.3,2.9-4C901.3,106.3,901,107.2,901,108z" fill="#e06ce6"></path>
                <path class="matchHeadingColourSVG" d="M913,66.6c1.7-0.8,3-2.4,3.8-3.5c2.5-3.3,5.3-8.8,3.9-14.6c-1-3.9-3.3-7.2-3.4-11.4c0-1.2,0.6-2.3,0.1-3.4   c-2.9,0.5-4.7,4.1-7,6.4c-1.1,1.1-2.4,2.4-3.2,3.6c-3.9,5.7-3,14,1.1,19.5C909.2,64.4,911.4,66.1,913,66.6z M917.7,59.2   c0.1-5.1-0.6-11.6-0.9-16.9C919,47,921.4,54.7,917.7,59.2z M915.5,46.7c0.9,4.7,2,13.6-1.6,16.1c-0.6-2.7,0.5-6,0.9-9.2   C915.1,51.3,914.7,48.8,915.5,46.7z M914.4,40.5c0.5,7.9-0.6,17-1.8,23.8c-2.6-2.4-3.7-7.9-3.1-12.4C910,47.8,912.2,42,914.4,40.5z    M911.7,41.2c-2.8,5-5.2,15-1.7,21.2C903.9,57.3,904.4,48.2,911.7,41.2z" fill="#9a7594"></path>
                <path d="M928.1,104.1c-2.4,0.4-5.4-0.9-7.2,1.8c-1.2,1.8-1.8,5.4-0.7,8.2c0.4,0.9,1.3,2.4,2.9,4.3c-4.9-3.4-8.3-2-10,0.3   c-0.7,0.9-0.4,2.5-0.6,3.6c-0.4,1.8-1.9,3.1-1.8,4.8c0.1,2,1.7,4.1,3.3,4.8c2,0.9,6.9-0.6,10.7-2.4c-2.3,1.1-5.1,5.4-5.5,8.2   c-0.3,2,0.3,4.2,2.3,5.5c2.3,1.5,4.5,0.6,6.8,0.4c1.7-0.1,3.1,0.6,4.1,0.5c4.9-0.7,5.2-7.1,1.7-13.4c4.4,3.7,9,3.7,12,2   c2.1-1.2,2.9-4.4,2.8-6.9c0-0.9-0.4-1.7-0.4-2.6s0.8-2.1,0.7-3c-0.2-1.9-2.3-3.9-4.1-4.3c-2.8-0.6-6.4,1.2-10.4,5.1   c3.4-5.7,4.2-10.1,3.1-13.7c-0.6-1.7-2.3-3.9-4-4.3C931.8,102.5,930.3,103.9,928.1,104.1z M912.7,127.5c-0.3-1.8,1.1-3.2,1.4-4.7   c0.2-1.7-0.1-2.8,0.8-4c0.7-0.9,2-1.6,3.7-1.6c3,0,6,2.4,7.7,5.4c-1.4,0.7-2.6-0.5-3.9-0.4c-0.3,0.3-0.6,0.4-0.6,0.8   c1.4,1.1,4.2,0.2,5.3,1.8c-1.2,1.5-4.4,0.4-4.9,2.2c0.6,0.9,2.4,0.1,3.6,0.1C923.2,130.1,913.3,134.1,912.7,127.5z M935.5,137.4   c0,1.5,0.1,3.8-2.8,5.2c-1.4,0.7-3.2-0.5-4.5-0.4c-2.5,0.2-6.5,1.8-7.8-1.5c-0.9-2.2,0.5-5.4,1.7-7.1c0.8-1.2,1.9-2.3,3-3.1   c0.4-0.3,3.8-1.9,3.8-2.2c0,2-2.6,3-1.8,5.1c1.3,0.2,1.2-1.2,2-1.6c0.6,1.7,0.3,4.2,1.5,4.7c1.3-0.3,0.5-1.4,0.3-2.3   c-0.3-1.9-0.6-4.4,0-5.7C933.1,129.5,935.5,133.7,935.5,137.4z M945.2,117.4c0.9,0.4,2.3,1.6,2.4,2.9c0,1-1.1,1.9-1,3.4   c0.1,1.8,1.5,3.4,0.4,5.8c-1.4,2.8-4.2,3.2-7,3.1c-1.4,0-2.8-0.5-4-1.3c-0.4-0.3-2.3-3.1-2.2-3.1c1.2,0.1,2.5,0.2,3.7,0.4   c0.5-0.3,0.8-0.7,0.7-1.3c-0.2-0.9-1.7,0.1-1.9-0.8c1.1-1.1,4.3-0.6,3.9-2.9c-2-0.1-5.8,3.2-8.1,1.8   C935.5,120.7,940.6,115.4,945.2,117.4z M934,104.6c1.4,0.5,2.3,2.3,2.6,4.5c0.8,5-1,9.7-3.9,12.7c-0.1-1.5,1.9-3,0.7-4.4   c-1.9,0.5-0.8,3.4-2.5,3.6c-0.2-1,0-6.9-1.6-6.6c-1.3,0.2-0.2,2.3-0.1,2.9c0.4,2,0.4,4.4-0.1,5.8c-1.2-0.2-1.5-1.4-2.2-2.2   c-0.8-0.8-1.9-1.4-2.7-2.2c-0.8-0.9-2.3-3.1-2.7-4.3c-0.9-2.5-0.2-7,1.6-8.2c2-1.3,3.6-0.1,5.7-0.5   C930.8,105.3,932.4,104,934,104.6z" fill="#e06ce6"></path>
             </g> -->
          </svg>