<svg version="1.1" id="footerImage" xmlns="http://www.w3.org/2000/svg" xmlns:xlink="http://www.w3.org/1999/xlink" x="0px" y="0px" viewBox="0 0 1021.5 130" style="enable-background:new 0 0 1021.5 130;" xml:space="preserve">
             <g>
                <path d="M523.8,91.7c0-3-2-8.3-4.7-12.9c2.8,3.6,9.4,6.5,12.6,5.9c1.7-0.3,5-1.9,6.4-3.6c2.9-3.4,0.9-9.5-2.2-12.3   c-2.6-2.3-6.4-2.7-9.1-2.6c-3.2,0.2-6.1,1.2-8.5,1.7c5.2-3.3,11.3-8.7,12.2-13.5c0.4-2.4-0.4-6.8-2.6-8.7c-1.7-1.4-4.6-1.8-6.2-1.6   c-4.8,0.5-8.5,6.1-9.7,11.1c-0.4,1.5-0.6,3.8-0.3,6.6c-2.2-7.3-7.6-14.3-13.6-16.5c-2.8-1-7.9-0.1-9.9,3.1   c-3.3,5.2-0.4,12.4,4.7,16.6c2.7,2.2,5.9,3.7,11.3,5.3c-5.3,1.1-12.2,2.2-16,5.9c-5.5,5.2-1.6,13.2,5.1,13.8   c4.7,0.4,11.7-4.9,16.2-11.4c-2.4,6-1.9,15.2,2.6,19.1c2.4,2.1,6,2.5,8.6,0.5C522.6,96.7,523.8,94.3,523.8,91.7z M518.5,47.4   c2.1-1.9,5.5-1.8,7.2-0.7c2.5,1.7,3.4,4.9,3,7.9c-0.8,6-8,11-13.2,13.2c1.3-4.1,5.8-9.3,5.6-13.3c-2-0.7-1.9,1.6-2.2,2.8   c-0.7,2.8-2.6,7.6-5.2,10.7C511.7,59.9,512.9,52.5,518.5,47.4z M489.2,51.1c2.2-6.2,9.6-4.5,13.8-0.6c5.3,5,8.9,11.9,8.8,18.6   c-5.7-2.7-8-8.9-12.5-12.4c-1.4,1-0.3,2,0.3,2.9c1.8,2.8,7.5,6.9,9.5,9.8C498.8,70.4,486.3,59.2,489.2,51.1z M528.9,76.9   c0.7-0.5,0.5-1,0.3-1.6c-3.6-2.3-9.4-3.5-12.5-5.6c2.3-1,4.6-1.5,7.1-1.8c4.5-0.5,8.5-0.8,11.7,2.9c2.2,2.5,3.6,6.7,0.7,9.4   c-3.1,2.8-6.6,3.2-9.4,2.5c-2.7-0.7-4.9-2.7-6.8-4.8c-1.5-1.8-4.5-4.5-5.2-6.7c4,0.5,7.9,2.1,11.2,4.2   C526.9,76,527.6,77.4,528.9,76.9z M489.6,86.4c-2.7-2.3-2.9-6.2-0.5-8.9c1.9-2.1,5.2-2.7,7.8-3.6c3.6-1.2,6.8-3.3,12.1-2.2   c-2.6,1.6-6.7,2.1-9.7,4.1c-0.9,0.6-2.6,1.4-2.3,2.9c1.6,1.6,2.5-0.7,3.4-1.4c2.7-2.2,7.8-3.7,10.6-5   C509.9,80.8,496.1,92,489.6,86.4z M512.9,95.9c-4.6-4.7-4.8-15.7-0.1-23.7c1.4,2.8,1.6,9.3,1,12.9c-0.2,1.4-0.5,3.9,1.3,3.4   c0.4-1.2,0.5-4.1,0.5-6c0-3.1-1-5.3-0.8-7.9c3,2.2,6.2,9.7,6.9,13c0.6,3,0.7,6.3-1.8,8.7C517.6,98.4,514.9,98,512.9,95.9z" fill="#e06ce6"></path>
                <path d="M422.9,43.2c-2,0.4-1.5,3.1-0.3,4.1c2.6,2,5.8-0.8,5.4-3.7c-0.6-4.3-6.1-6.1-8.8-5.1c-4.1,1.5-4.4,6.5-3.3,9.9   c0.8,2.3,3.1,5.5,5.3,7.5c4.4,4.1,10.1,6.2,14.8,8.2c-1.3,0.1-3.9,0.5-4.9,0.9c-2.2,1-3.8,3.6-1.8,5.6c1.5,1.5,4.3,1.4,6.1,0.5   c2.3-1.2,3.5-3.1,5.6-3.7c4.3-1.3,9.6,2.4,15.2,3.1c-2.4,0.3-4.7,0.9-6.3,1.8c-1.8,1.1-4.1,3.3-2.6,5.4c1,1.4,3.1,2.6,5.1,1.6   c2.8-1.4,4.3-5.7,6.9-6.9c1.9-0.9,6.5,0.5,8.8,0.9c3.3,0.6,8.1,0.5,11.7,0.1c-2,1-4.6,2.7-5.9,4.5c-1.4,2-1,5.4,2,5.5   c1.4,0.1,3.5-1,4.4-2.1c1.9-2.1,2-5.9,4.6-7.3c1.5-0.9,5.7-0.2,6.6-1.7c0.2-0.3,0.2-0.5,0.2-0.7c-0.3-1.8-7.2-1.7-8.5-1.9   c-3.7-0.4-7-1.7-8.9-5.1c-1.5-2.7-2.3-7.3,0.3-9.8c1.6-1.5,4.8-1.5,6.3-0.5c1.1,0.7,2.1,2.1,2,3.4c0,1-1,2.6-2.3,2   c-0.8-0.4-0.2-0.6-0.3-1.2c-0.2-1.2-1.2-2-2.4-1.4c-2.9,1.5,2.3,6.2,5.2,3.8c2.3-1.9,2-4.8,0.5-6.5c-1.4-1.7-4.1-2.1-5.9-2.1   c-2.2,0.1-4.3,1.3-5.5,3.2c-2.5,4.2-0.4,10.2,3.3,12.9c2.5,1.9,6.7,3.2,9.8,3.2c-4.2,1.2-13.7,0.6-18.4-0.5   c-3.6-0.8-5.9-1.4-8.8-4.5c-2.4-2.5-4.6-6.4-2.3-9.3c0.8-1,2.1-1.7,3.4-1.5c1.1,0.2,2.1,1.5,1.6,2.7c-0.5-1.6-2.4-1.4-3-0.4   c-0.6,1.1,0.4,2.3,1.3,2.9c2.6,1.7,4.6-1.6,3.7-3.8c-1-2.5-3.7-3.5-6.1-2.3c-2.3,1.1-3.8,3.7-3.3,6.2c0.3,1.6,1.2,3.2,1.8,4.2   c1.1,1.8,2.6,3,5.4,4.7c-0.1-0.1-1.4-0.3-1.7-0.4c-1.5-0.4-3.1-0.8-4.6-1.2c-2.7-0.7-5.4-1.6-8.1-2.6c-2.8-1-5.6-2.7-7.9-4.6   c-4.1-3.6-6.4-12-0.2-14.9c2.1-1,6-0.5,7.6,1.4c1.4,1.6,0.8,4.1-1.3,4.6c0.4-3.5-3.8-2.5-3-0.1c0.5,1.4,2,2.7,4.3,1.7   c2.1-0.9,2.7-4.9,2-6.2c-2.5-4.8-9.4-4.1-12.2-1.6c-1.9,1.7-2.8,4.4-2.8,6.2c-0.1,3.5,0.9,7,6.3,11.3c-4.9-1.5-15.3-6.8-19.3-12.6   c-1.6-2.4-3.8-6.9-1.8-9.4c1.9-2.3,5.6-2.3,7.6-0.1c1,1.1,1.7,3,0.3,3.9c-0.8,0.5-1.4,0.4-1.4,0.4C425,44.7,424.5,42.9,422.9,43.2z    M480.4,78.8c-0.8,1.3-1.9,2.7-3.4,3c-3.6,0.8-2.2-3.4-0.4-4.9c1.8-1.5,3.9-2.5,6.4-3.1C482,75,481.1,77.6,480.4,78.8z M457.7,71.7   c-1,1.2-2,2.4-2.9,3.7c-1.4,1.9-5,4.3-6.2,1.5c-0.8-2,1.3-3.3,2.8-4C453.6,71.8,456,71.6,457.7,71.7z M440.8,66   c-2.6,1.2-4.7,3.7-7.6,4.3c-1.3,0.3-2.8-0.1-3.1-1.5c0-0.1,0-0.3,0-0.4c0-2.2,2.8-3,4.5-3.3C436.8,64.8,439.4,65.3,440.8,66z" fill="#e06ce6"></path>
                <path d="M597.1,38c0,0-0.6,0.1-1.4-0.4c-1.4-0.9-0.7-2.8,0.3-3.9c2-2.2,5.7-2.2,7.6,0.1c2,2.5-0.2,7-1.8,9.4   c-4,5.8-14.4,11.1-19.3,12.6c5.4-4.3,6.4-7.8,6.3-11.3c0-1.8-0.9-4.5-2.8-6.2c-2.8-2.5-9.7-3.2-12.2,1.6c-0.7,1.3-0.1,5.3,2,6.2   c2.3,1,3.8-0.3,4.3-1.7c0.8-2.4-3.4-3.4-3,0.1c-2.1-0.5-2.7-3-1.3-4.6c1.6-1.9,5.5-2.4,7.6-1.4c6.2,2.9,3.9,11.3-0.2,14.9   c-2.3,1.9-5.1,3.6-7.9,4.6c-2.7,1-5.4,1.9-8.1,2.6c-1.5,0.4-3.1,0.8-4.6,1.2c-0.3,0.1-1.6,0.3-1.7,0.4c2.8-1.7,4.3-2.9,5.4-4.7   c0.6-1,1.5-2.6,1.8-4.2c0.5-2.5-1-5.1-3.3-6.2c-2.4-1.2-5.1-0.2-6.1,2.3c-0.9,2.2,1.1,5.5,3.7,3.8c0.9-0.6,1.9-1.8,1.3-2.9   c-0.6-1-2.5-1.2-3,0.4c-0.5-1.2,0.5-2.5,1.6-2.7c1.3-0.2,2.6,0.5,3.4,1.5c2.3,2.9,0.1,6.8-2.3,9.3c-2.9,3.1-5.2,3.7-8.8,4.5   c-4.7,1.1-14.2,1.7-18.4,0.5c3.1,0,7.3-1.3,9.8-3.2c3.7-2.7,5.8-8.7,3.3-12.9c-1.2-1.9-3.3-3.1-5.5-3.2c-1.8,0-4.5,0.4-5.9,2.1   c-1.5,1.7-1.8,4.6,0.5,6.5c2.9,2.4,8.1-2.3,5.2-3.8c-1.2-0.6-2.2,0.2-2.4,1.4c-0.1,0.6,0.5,0.8-0.3,1.2c-1.3,0.6-2.3-1-2.3-2   c-0.1-1.3,0.9-2.7,2-3.4c1.5-1,4.7-1,6.3,0.5c2.6,2.5,1.8,7.1,0.3,9.8c-1.9,3.4-5.2,4.7-8.9,5.1c-1.3,0.2-8.2,0.1-8.5,1.9   c0,0.2,0,0.4,0.2,0.7c0.9,1.5,5.1,0.8,6.6,1.7c2.6,1.4,2.7,5.2,4.6,7.3c0.9,1.1,3,2.2,4.4,2.1c3-0.1,3.4-3.5,2-5.5   c-1.3-1.8-3.9-3.5-5.9-4.5c3.6,0.4,8.4,0.5,11.7-0.1c2.3-0.4,6.9-1.8,8.8-0.9c2.6,1.2,4.1,5.5,6.9,6.9c2,1,4.1-0.2,5.1-1.6   c1.5-2.1-0.8-4.3-2.6-5.4c-1.6-0.9-3.9-1.5-6.3-1.8c5.6-0.7,10.9-4.4,15.2-3.1c2.1,0.6,3.3,2.5,5.6,3.7c1.8,0.9,4.6,1,6.1-0.5   c2-2,0.4-4.6-1.8-5.6c-1-0.4-3.6-0.8-4.9-0.9c4.7-2,10.4-4.1,14.8-8.2c2.2-2,4.5-5.2,5.3-7.5c1.1-3.4,0.8-8.4-3.3-9.9   c-2.7-1-8.2,0.8-8.8,5.1c-0.4,2.9,2.8,5.7,5.4,3.7c1.2-1,1.7-3.7-0.3-4.1C597,35.1,596.5,36.9,597.1,38z M538.5,66   c2.5,0.6,4.6,1.6,6.4,3.1c1.8,1.5,3.2,5.7-0.4,4.9c-1.5-0.3-2.6-1.7-3.4-3C540.4,69.8,539.5,67.2,538.5,66z M570.1,65.1   c1.5,0.7,3.6,2,2.8,4c-1.2,2.8-4.8,0.4-6.2-1.5c-0.9-1.3-1.9-2.5-2.9-3.7C565.5,63.8,567.9,64,570.1,65.1z M586.9,57.3   c1.7,0.3,4.5,1.1,4.5,3.3c0,0.1,0,0.3,0,0.4c-0.3,1.4-1.8,1.8-3.1,1.5c-2.9-0.6-5-3.1-7.6-4.3C582.1,57.5,584.7,57,586.9,57.3z" fill="#e06ce6"></path>
             </g>
          </svg>